<svg xmlns="http://www.w3.org/2000/svg" version="1.1" viewBox="33 8 1955 1919">
<path transform="translate(956,8)" d="m0 0 5 1 5 5 8 14 16 36 14 34 12 31 12 33 14 45 10 38 8 38 6 38 3 29 1 15v54l-4 37-5 26-7 26-9 25-11 24-11 19-8 12-12 16-9 11-4 5h-2l-2 4-12 12-8 7-12 10-18 13-20 12-19 10-19 8-27 9-24 6-29 5-30 3h-59l-33-3-35-5-31-6-34-8-42-12-37-12-38-14-37-15-36-16-23-11-5-6 1-7 3-3 12 1 62 8 33 3 39 2h32l25-1 29-3 27-4 28-6 29-8 25-9 26-11 20-10 17-10 20-13 15-11 16-13 14-12 26-26 9-11 8-9 14-19 12-18 15-26 12-25 10-25 10-31 7-29 6-36 3-26 1-17v-64l-3-42-8-63-2-14v-11z" fill="#EC801A"/>
<path transform="translate(920,752)" d="m0 0h37l27 3 29 6 23 7 20 8 25 12 18 11 17 12 16 13 12 11 20 20 9 11 12 15 14 20 14 23 10 18 14 28 13 31 11 30 11 34 11 42 8 35 9 50 6 42 6 54 1 15-3 5-5 4-5-1-4-6-13-32-13-31-13-29-8-16-12-23-16-27-13-20-12-17-10-13-14-17-11-12-9-10-12-12-8-7-15-13-16-12-17-12-27-16-15-8-27-12-24-9-31-9-28-6-18-3-31-3h-47l-31 3-29 5-32 8-36 12-26 11-25 12-23 12-22 13-25 16-28 20-16 12-26 20-14 11-6 4h-5l-4-5v-8l7-11 12-16 12-17 16-21 11-14 8-10 13-16 9-11 11-12 9-11 9-9 7-8 16-16 6-7 8-7 12-12 8-7 10-9 11-9 13-11 19-14 14-10 15-10 20-12 24-13 19-9 26-10 22-7 26-6 26-4z" fill="#73AD3A"/>
<path transform="translate(1434,138)" d="m0 0h7l6 4-1 6-10 13-14 18-20 26-12 17-9 13-10 15-11 18-10 17-10 18-11 23-12 28-10 28-7 24-7 32-5 37-1 14v42l3 31 5 30 6 26 12 36 8 20 12 25 9 17 12 19 12 17 10 13 11 13 11 12 9 9v2l4 2 13 13 11 9 13 11 12 9 20 14 17 11 22 13 26 14 24 12 39 17 44 18 10 5 2 5-7 8-5 1-57-6-44-6-46-8-33-7-44-11-36-11-29-10-34-14-18-8-19-10-17-9-24-15-14-10-12-9-11-9-12-11-10-9-16-17-14-17-11-16-11-18-8-15-9-21-10-30-6-27-3-21-1-11v-38l3-26 5-25 7-25 10-28 13-28 15-28 14-22 11-16 16-21 11-14 12-14 9-10 7-8 12-13 31-31 8-7 14-13 8-7 26-22 28-22 13-10 38-28 18-12z" fill="#317BBD"/>
<path transform="translate(112,1375)" d="m0 0h64l36 4 27 6 20 7 16 7 17 10 13 10 12 11 11 11 12 17 7 12 8 19 6 21 3 15 2 17v44l-3 24-6 25-6 18-10 21-10 16-9 11-9 10-9 9-13 10-13 8-17 9-24 9-26 7-23 4-28 3-19 1h-31l-44-2-32-3-1-1v-382l9-2 37-4zm24 55-23 2-8 2v279l2 1 24 1h23l22-2 23-5 19-7 18-10 11-9 10-9 10-13 9-16 6-15 5-18 3-18 1-10v-35l-3-21-5-19-8-18-10-15-10-11-14-11-14-8-14-6-18-5-16-3-12-1z" fill="#317BBD"/>
<path transform="translate(539,1479)" d="m0 0h27l21 3 18 5 18 8 14 9 10 8 14 14 11 16 8 15 8 24 3 14 2 22v15l-3 27-5 20-8 19-9 16-11 14-11 11-15 11-12 7-17 7-17 5-16 3-9 1h-25l-21-3-18-5-18-8-15-9-13-11-10-10-12-17-8-15-6-16-4-16-3-21v-26l3-24 5-19 5-13 8-16 9-13 10-12h2l1-3 11-9 15-10 17-8 20-6 17-3zm0 52-16 5-11 7-10 10-7 11-8 17-5 21-1 8v33l3 18 5 15 7 14 10 13 8 7 14 8 11 3 16 1 14-3 14-7 10-8 8-10 8-14 7-21 3-20v-27l-3-19-5-17-8-16-10-13-10-8-13-6-7-2z" fill="#317BBD"/>
<path transform="translate(1332,1479)" d="m0 0h26l21 3 15 4 15 6 15 8 12 9 10 9 7 7 12 17 10 21 6 19 3 16 1 9v33l-3 22-6 21-5 12-6 12-11 16-4 5h-2l-2 4-12 11-17 11-19 9-20 6-16 3-9 1h-25l-21-3-21-6-21-10-14-10-10-9-9-9-10-14-7-12-8-20-5-21-2-14v-34l3-21 6-21 7-16 6-11 10-14 12-13 15-12 16-9 19-8 21-5zm0 52-14 4-12 7-7 6-10 13-8 17-4 13-3 16-1 10v20l3 21 7 21 7 13 8 10 7 7 14 8 12 4 17 1 14-3 14-7 12-11 8-10 8-17 5-17 3-24v-15l-2-18-4-17-6-15-8-13-9-10-9-7-11-5-8-2z" fill="#317BBD"/>
<path transform="translate(679,221)" d="m0 0h19l15 2 17 5 19 9 14 10 12 11 10 12 8 13 7 15 5 19 2 14v17l-2 14-4 15-7 17-10 16-11 12-5 5-8 7-18 11-14 6-21 5-6 1h-26l-20-4-16-6-16-9-14-11-10-10-11-15-8-15-6-18-3-13-1-10v-13l2-16 6-21 8-16 7-11 12-14 10-9 10-7 14-8 17-6 14-3z" fill="#EC801A"/>
<path transform="translate(903,1041)" d="m0 0h12l17 2 15 4 15 6 15 9 10 8 14 14 9 13 8 15 7 21 2 11v31l-5 21-6 15-8 14-10 13-12 12-16 11-16 8-19 6-13 2h-28l-19-4-15-6-15-8-12-9-9-8-9-11-10-15-7-16-4-13-3-16v-23l4-20 5-15 9-17 9-12 11-12 14-11 14-8 14-6 15-4z" fill="#73AD3A"/>
<path transform="translate(1504,441)" d="m0 0h13l17 2 18 5 19 9 14 10 13 12 11 14 9 16 6 16 4 17 1 11v13l-2 16-4 15-7 16-6 11-9 12-15 15-10 7-16 9-21 7-17 3h-25l-20-4-20-8-16-10-14-12-10-11-9-14-8-16-5-17-2-11-1-19 2-17 4-16 8-18 8-13 12-15 8-7 13-10 17-9 15-5 15-3z" fill="#317BBD"/>
<path transform="translate(1889,1479)" d="m0 0h26l23 3 19 5 18 7 2 4-10 35-3 11-3 1-16-7-16-5-21-3h-9l-12 2-9 4-7 5-4 7-2 6v11l4 9 7 7 12 7 25 10 24 10 14 8 14 11 9 10 8 14 4 12 1 6v31l-4 15-7 14-8 10-10 10-11 7-12 6-15 5-19 4-31 2-25-2-25-5-20-7-11-5-1-3 12-43 2-6 5 1 21 9 20 6 11 2 21 1 13-2 12-5 7-5 4-6 2-7v-14l-6-12-9-7-16-8-35-14-17-9-13-10-12-12-8-13-5-14-2-13 1-16 4-16 8-16 8-10 9-9 15-10 15-7 19-5z" fill="#317BBD"/>
<path transform="translate(1095,1414)" d="m0 0h5v72l66-1 2 1v51l-1 1-17 1h-49v134l2 16 5 12 5 6 12 6 7 1h14l18-2 1 20v34l-15 4-23 3h-24l-17-3-13-5-11-6-12-11-9-14-5-12-5-25-1-14v-145l-14 1h-25l-1-1v-52h40v-53l19-6 43-12z" fill="#317BBD"/>
<path transform="translate(875,1479)" d="m0 0h27l24 3 20 5 11 4 1 3-11 47-2 4-19-6-15-3h-33l-18 4-16 8-9 7-5 5-8 9-8 15-5 15-2 11v32l3 14 6 16 6 10 9 11 10 8 12 7 15 5 11 2h29l18-3 16-5 5-2 2 5 8 43v5l-9 4-18 5-23 4-10 1h-38l-20-3-17-5-15-6-16-9-13-10-14-14-10-14-9-17-8-24-3-16-1-9v-33l4-24 7-21 8-16 10-16 12-13 8-8 15-11 14-8 15-6 16-5 23-4z" fill="#317BBD"/>
<path transform="translate(1676,1479)" d="m0 0h16l8 1 1 1v66h-33l-12 3-12 6-10 9-6 7-8 15-4 17-1 21v140l-1 1h-70l-1-1-1-250-1-29 1-1h59l2 1 2 51 3-4 10-17 10-13 12-10 14-8 11-4z" fill="#317BBD"/>
<path transform="translate(1728,1457)" d="m0 0h57l2 2-4 41-3 32-1 5h-42l-2-7-8-68z" fill="#327BBD"/>
<path transform="translate(1628,1833)" d="m0 0h38l9 2 6 4 5 10v8l-4 8-5 4 6 5 4 6 1 4v7l-3 7-5 6-6 3-7 1h-39l-1-73zm15 10-2 1v21h20l7-2 5-6-1-8-4-4-3-1zm-2 32v22l4 1h13l10-1 4-2 3-5-1-9-5-5-8-1z" fill="#327BBD"/>
<path transform="translate(1220,1833)" d="m0 0h8l4 2 9 12 14 18 10 13 4 5v-49l1-1h12l1 1v73l-1 1h-8l-7-6-13-17-14-18-6-8v-2h-2l1 50-1 1h-12l-1-1v-73z" fill="#327BBD"/>
<path transform="translate(962,1833)" d="m0 0h8l7 6 10 13 15 20 9 11v-49l1-1h12l1 1v73l-4 2-7-2-12-14-9-12-14-18-5-5v50h-12l-1-2v-72z" fill="#317BBD"/>
<path transform="translate(260,1833)" d="m0 0h34l10 2 10 5 7 8 4 8 1 4v21l-4 11-7 8-8 5-7 2-9 1h-31zm15 11-1 1-1 51 1 1h18l10-3 6-5 4-9v-20l-5-9-7-5-13-2z" fill="#327BBD"/>
<path transform="translate(810,1833)" d="m0 0h39l10 3 6 5 4 9v11l-4 8-6 5-6 2 6 7 13 24v1h-14l-6-9-8-15-3-4-3-1-15-1v30h-13l-1-1v-73zm15 10-2 1v23h25l6-4 2-4-1-9-5-5-3-1z" fill="#317BBD"/>
<path transform="translate(1476,1833)" d="m0 0h39l9 2 8 7 3 8v12l-5 8-4 4-6 2 6 9 9 15 3 8h-13l-4-4-12-22-4-3h-15l-1 29h-13zm15 10-2 1v23h25l6-4 2-3v-9l-5-6-3-1z" fill="#317BBD"/>
<path transform="translate(1328,1832)" d="m0 0h8l10 2 8 4 7 7 5 10 2 9v14l-2 9-5 9-8 8-10 4-6 1h-11l-11-3-8-6-6-8-4-11-1-16 3-12 6-10 7-6 9-4zm0 11-7 3-6 5-4 9-1 6v11l2 8 5 8 10 5h11l8-4 6-8 2-9v-15l-3-9-7-7-8-3z" fill="#327BBD"/>
<path transform="translate(1948,1832)" d="m0 0h9l10 2 9 5 7 8 4 10 1 17-2 14-6 10-8 7-8 3-7 1h-10l-9-2-8-5-8-9-4-10-1-5v-15l4-13 6-8 7-6 8-3zm0 11-10 5-5 8-2 6v18l3 8 5 6 5 3 4 1h11l9-5 5-8 1-4v-21l-3-8-8-7-7-2z" fill="#327BBC"/>
<path transform="translate(1838,1833)" d="m0 0h12l2 1v31l37-1v-29l1-2h12l2 2v72l-1 1h-13v-32l-39-1v33h-13z" fill="#317BBD"/>
<path transform="translate(682,1832)" d="m0 0h12l12 3 8 5-1 7-3 4-10-5-10-2-10 1-8 5-5 9-1 5v14l3 10 3 3v2l5 2 6 2h15l5-1v-17l-7-1h-7l-2-2v-7l1-1 27-1 1 1v35l-5 3-15 3h-14l-12-3-8-6-5-6-4-8-2-8v-16l4-12 6-8 8-6 8-3z" fill="#327BBC"/>
<path transform="translate(181,1833)" d="m0 0h14l1 3v48l3 8 6 4 3 1h10l8-4 3-5 1-5 1-50h13l1 1v38l-1 15-3 9-7 8-9 4-7 1h-12l-8-2-7-4-6-7-3-8-1-6z" fill="#337CBD"/>
<path transform="translate(731,1833)" d="m0 0h13l1 1v50l3 8 6 4 4 1h10l6-3 3-3 2-6 1-51 1-1h12l1 1v46l-2 12-4 7-8 7-12 3h-12l-9-2-9-6-5-8-2-7z" fill="#317BBD"/>
<path transform="translate(1139,1833)" d="m0 0h9l5 8 18 40 11 25v2h-13l-7-15v-2l-37 1-7 15-1 1h-12v-4l9-21 7-14 9-21 7-14zm3 17-12 28v2h26l-3-10-7-17-2-3z" fill="#327BBD"/>
<path transform="translate(131,1833)" d="m0 0h9l5 8 15 34 7 15 8 18h-13l-3-4-5-11v-2l-37 1-7 16h-14l1-4 15-33 13-29 4-8zm4 17-3 5-10 23v2h26l-1-5-10-24z" fill="#327BBD"/>
<path transform="translate(432,1833)" d="m0 0h50v11h-37l1 20 34 1v10h-35v22h37v11h-50l-1-13v-61z" fill="#337CBD"/>
<path transform="translate(340,1833)" d="m0 0h51v10l-1 1h-36v21h35v9l-1 1h-34l-1 22h37l1 5v5l-1 1h-50z" fill="#327BBD"/>
<path transform="translate(1577,1833)" d="m0 0h8l3 3 13 30 9 19 9 21v2h-12l-3-4-5-12-38-1-1 5-5 12h-15l2-1 1-5 16-35 11-25 5-8zm3 16-7 15-6 14v2h26l-1-5-8-20-3-6z" fill="#327CBD"/>
<path transform="translate(910,1833)" d="m0 0h9l4 6 12 27 15 33 3 9h-12l-5-8-3-9h-35l-3 3-7 14h-13l3-9 16-35 9-20 5-10zm3 16-8 19-5 12h28l-10-24-4-7z" fill="#337CBD"/>
<path transform="translate(1728,1833)" d="m0 0h8l4 5 27 60 4 10h-12l-3-3-6-13-36-1-6 13-2 4h-13l1-5 13-29 12-27 6-12zm3 17-5 10-8 18v2h27l-6-16-6-13z" fill="#327BBD"/>
<path transform="translate(591,1833)" d="m0 0h50l1 3-1 8h-37l1 2-1 18 36 1-1 10-34 1-1 21h37l1 10-1 1h-50z" fill="#317BBD"/>
<path transform="translate(544,1832)" d="m0 0h11l10 2 11 5v6l-3 6-5-2-9-4-4-1h-10l-8 4-2 4 1 6 6 4 21 6 9 5 6 7 1 8-2 8-7 8-5 3-9 2h-15l-12-3-9-5 1-6 2-4 5 1 10 4 5 1h13l7-4 1-2v-8l-5-2-24-7-8-5-5-6-1-3v-10l4-8 7-6 7-3z" fill="#317BBD"/>
<path transform="translate(57,1832)" d="m0 0h12l12 3 9 5-1 7-2 4-6-2-9-4-4-1h-10l-7 4-3 5 2 6 8 4 21 6 9 6 4 7v10l-5 9-5 4-8 3-5 1h-14l-12-3-10-5 1-5 3-5 6 2 13 4h13l6-3 3-4-1-6-6-4-23-6-9-6-4-7-1-7 3-10 4-5 8-5z" fill="#327BBD"/>
<path transform="translate(1069,1832)" d="m0 0h12l13 4 6 4-1 7-2 4-4-1-10-5-12-1-8 3-3 1-2 4-4 9-1 12 2 11 6 9 6 3 5 1h8l11-4 2-2 4 1 3 4v5l-8 5-8 2h-6v3l5 2 4 5v5l-4 4h-18l-1-4 4-1h10l-1-4-8-1v-6l1-2-10-2-10-6-6-8-4-8-2-11v-9l3-12 7-11 8-6 7-3z" fill="#327BBD"/>
<path transform="translate(1404,1833)" d="m0 0h63v11l-24 1-1 63h-14l-1-63-23-1-1-4z" fill="#327BBD"/>
<path transform="translate(1779,1833)" d="m0 0h13l1 1v63h35v11h-49l-1-73z" fill="#327BBD"/>
<path transform="translate(221,1810)" d="m0 0h11l-2 4-13 13h-7l1-4 7-11z" fill="#317BBC"/>
</svg>