<svg xmlns="http://www.w3.org/2000/svg" version="1.1" viewBox="26 8 1305 1304">
<path transform="translate(624,8)" d="m0 0 5 1 5 5 8 14 16 36 14 34 12 31 12 33 14 45 11 42 7 34 5 30 4 36 1 15v55l-4 37-5 26-6 23-10 28-10 22-12 21-13 19-11 14-9 11h-2l-2 4-12 12-8 7-12 10-18 13-20 12-19 10-27 11-26 8-27 6-27 4-23 2h-57l-34-3-35-5-31-6-38-9-41-12-36-12-31-11-37-15-39-17-25-12-4-5-1-4 2-6 7-1 61 8 40 4 37 2h38l33-2 33-4 32-6 30-8 30-10 30-13 25-13 18-11 12-8 15-11 16-13 14-12 26-26 9-11 11-13 13-18 10-15 15-26 12-25 10-25 10-31 7-29 6-36 3-26 1-16 1-38-2-45-3-32-7-55-2-14v-11z" fill="#EF821B"/>
<path transform="translate(587,752)" d="m0 0h38l28 3 28 6 23 7 20 8 25 12 18 11 17 12 16 13 12 11 20 20 9 11 12 15 16 23 12 20 10 18 14 28 13 31 11 30 11 34 10 37 9 40 8 44 6 40 7 61 1 17-6 7-6 1-4-5-11-26-13-32-13-29-14-29-13-24-15-25-10-15-12-17-10-13-14-17-11-12-9-10-12-12-8-7-15-13-16-12-17-12-27-16-15-8-27-12-24-9-31-9-28-6-27-4-22-2h-46l-32 3-29 5-32 8-33 11-27 11-29 14-21 11-28 17-19 12-28 20-16 12-26 20-15 12-5 3h-5l-4-5-1-5 5-10 14-19 8-11 14-19 10-13 20-25 13-16 9-10 9-11 14-15 9-10 13-13 5-6 8-7 16-16 8-7 10-9 11-9 13-11 19-14 17-12 17-11 15-9 24-13 24-11 24-9 22-7 28-6 20-3z" fill="#75AF3B"/>
<path transform="translate(1102,138)" d="m0 0h7l6 4-1 6-13 17-12 15-21 28-13 18-14 21-13 20-6 11-10 18-12 23-11 25-10 26-10 32-8 36-4 27-2 23v44l3 31 5 30 8 32 10 30 11 26 9 19 14 24 7 11 13 19 11 13 8 10 22 24 15 14 15 13 14 11 19 14 18 12 23 14 16 9 27 14 25 12 37 16 37 15 9 5v6l-6 6h-17l-52-6-49-7-44-8-44-10-37-10-37-12-34-13-27-12-16-8-25-13-24-15-14-10-16-12-15-13-8-8-8-7-12-13-12-14-13-18-13-21-13-26-10-27-6-21-5-25-3-26v-36l3-28 6-29 7-24 10-27 12-26 9-17 16-27 13-19 14-19 11-14 11-13 9-11 16-17 9-10 27-27h2v-2l8-7 15-14 8-7 26-22 28-22 13-10 38-28 18-12z" fill="#367FC0"/>
<path transform="translate(347,221)" d="m0 0h19l15 2 20 6 19 10 11 8 12 11 10 12 9 15 6 14 4 13 3 18v18l-2 14-4 15-5 12-8 15-10 13-13 13-16 11-16 8-16 5-16 3h-25l-17-3-15-5-16-8-13-9-13-12-10-12-9-15-6-14-5-18-2-15v-13l2-16 4-15 6-15 8-14 9-11 9-10 15-12 16-9 17-6 14-3z" fill="#EF811B"/>
<path transform="translate(570,1041)" d="m0 0h14l16 2 15 4 17 7 16 10 12 11 9 9 9 13 8 15 7 21 2 11v31l-5 21-6 15-8 14-10 13-12 12-16 11-16 8-19 6-13 2h-28l-19-4-15-6-15-8-13-10-8-7-9-11-10-15-6-13-5-16-3-15v-24l4-20 5-15 9-17 9-12 11-12 14-11 14-8 14-6 21-5z" fill="#75AF3B"/>
<path transform="translate(1172,441)" d="m0 0h13l17 2 18 5 17 8 12 8 13 11 10 11 10 15 7 15 6 21 2 16v13l-3 20-5 16-8 17-9 13-9 10-9 9-15 10-16 8-20 6-13 2h-24l-17-3-17-6-17-9-12-9-12-11-11-14-9-16-5-13-4-16-1-6v-29l3-16 7-19 7-13 10-14 6-7 8-7 13-10 17-9 15-5 15-3z" fill="#367FC0"/>
</svg>